<svg width="32" height="33" viewBox="0 0 32 33" fill="#60A5FA" xmlns="http://www.w3.org/2000/svg"><path fill-rule="evenodd" clip-rule="evenodd" d="m9.661 9.34-3.51 2.946a5.284 5.284 0 0 0-2.138 4.25v5.416a5.292 5.292 0 0 0 5.292 5.292H22.72a5.292 5.292 0 0 0 5.292-5.292v-5.416a5.289 5.289 0 0 0-2.534-4.517l-.448-1.231a5.29 5.29 0 0 0-4.132-3.416l-.272-.324a5.292 5.292 0 0 0-7.456-.652L9.661 9.34Zm4.475-1.795-3.319 2.784L7.599 11.5l10.649-3.875a5.335 5.335 0 0 1 .63-.187 3.794 3.794 0 0 0-4.742.107ZM23.62 11.3l.008.021a5.327 5.327 0 0 0-.908-.078H12.688l6.073-2.21a3.792 3.792 0 0 1 4.86 2.267Zm-4.681 4.44a3.535 3.535 0 1 0 0 7.07 3.535 3.535 0 0 0 0-7.07Zm-2.035 3.535a2.035 2.035 0 1 1 4.07 0 2.035 2.035 0 0 1-4.07 0ZM12.75 17.24a2.035 2.035 0 1 0 1.202 3.677.75.75 0 0 1 .887 1.21 3.535 3.535 0 1 1 .022-5.687.75.75 0 1 1-.896 1.202 2.022 2.022 0 0 0-1.214-.402Z"></path></svg>