<svg width="32" height="33" viewBox="0 0 32 33" fill="#60A5FA" xmlns="http://www.w3.org/2000/svg"><path d="M10.029 5.702h4.036A4.5 4.5 0 0 1 18.09 8.19l.293.586c.095.19.29.31.503.31H23a4 4 0 0 1 4 4v.616h-3.219v-.5a1 1 0 0 0-1-1H9.22a1 1 0 0 0-1 1v.5H5.024l.005-3.008a5 5 0 0 1 5-4.992Z"></path><path fill-rule="evenodd" clip-rule="evenodd" d="M5.021 15.202v.016H5c-.476 0-.926.188-1.222.51a1.21 1.21 0 0 0-.297 1.143l1.812 6.711h.018a6.003 6.003 0 0 0 5.7 4.12H21a6.002 6.002 0 0 0 5.913-4.974l1.605-5.852a1.21 1.21 0 0 0-.294-1.147c-.296-.323-.747-.511-1.224-.511v-.016H5.021Zm-.002 1.363H5l.019.07v-.07Z"></path></svg>