<svg width="32" height="32" viewBox="0 0 32 32" fill="#60A5FA" xmlns="http://www.w3.org/2000/svg"><g clip-path="url(#_70268267__a)"><path fill-rule="evenodd" clip-rule="evenodd" d="M8.765 18.1c-.971 0-1.759.787-1.759 1.759v3.282c0 .972.788 1.759 1.76 1.759h3.281c.972 0 1.76-.787 1.76-1.759V19.86c0-.972-.788-1.759-1.76-1.759H8.765Zm0-1.25a3.009 3.009 0 0 0-3.009 3.009v3.282a3.009 3.009 0 0 0 3.01 3.009h3.281a3.009 3.009 0 0 0 3.01-3.009V19.86a3.009 3.009 0 0 0-3.01-3.009H8.765Z"></path><path d="M17.344 21.5c0-.345.28-.625.625-.625h7.25a.625.625 0 0 1 0 1.25h-7.25a.625.625 0 0 1-.625-.625Z"></path><path d="M21.594 17.25c.345 0 .625.28.625.625v7.25a.625.625 0 0 1-1.25 0v-7.25c0-.345.28-.625.625-.625Z"></path><path fill-rule="evenodd" clip-rule="evenodd" d="M8.765 7.1c-.971 0-1.759.787-1.759 1.759v3.282c0 .972.788 1.759 1.76 1.759h3.281c.972 0 1.76-.787 1.76-1.759V8.86c0-.972-.788-1.759-1.76-1.759H8.765Zm0-1.25a3.009 3.009 0 0 0-3.009 3.009v3.282a3.009 3.009 0 0 0 3.01 3.009h3.281a3.009 3.009 0 0 0 3.01-3.009V8.86a3.009 3.009 0 0 0-3.01-3.009H8.765ZM19.953 7.1c-.972 0-1.76.787-1.76 1.759v3.282c0 .972.788 1.759 1.76 1.759h3.282c.971 0 1.759-.787 1.759-1.759V8.86c0-.972-.788-1.759-1.76-1.759h-3.281Zm0-1.25a3.009 3.009 0 0 0-3.01 3.009v3.282a3.009 3.009 0 0 0 3.01 3.009h3.282a3.009 3.009 0 0 0 3.009-3.009V8.86a3.009 3.009 0 0 0-3.01-3.009h-3.281Z"></path></g><defs><clipPath id="_70268267__a"><rect width="32" height="32" rx="8"></rect></clipPath></defs></svg>