<svg width="32" height="32" viewBox="0 0 32 32" fill="#60A5FA" xmlns="http://www.w3.org/2000/svg"><path fill-rule="evenodd" clip-rule="evenodd" d="M16.766 25.5h-1.532c-2.01 0-3.41-.002-4.494-.105-1.06-.102-1.66-.29-2.108-.569a4.5 4.5 0 0 1-1.458-1.458c-.278-.449-.467-1.048-.569-2.108-.103-1.084-.105-2.485-.105-4.494 0-1.773.018-2.323.176-2.802.097-.295.232-.575.403-.834.278-.421.699-.776 2.09-1.876l3.245-2.568c.996-.788 1.659-1.31 2.208-1.662.524-.336.828-.438 1.078-.468a2.5 2.5 0 0 1 .6 0c.25.03.554.132 1.078.468.55.353 1.212.874 2.208 1.662l3.246 2.568c1.39 1.1 1.81 1.455 2.089 1.876.17.259.306.54.403.834.158.48.176 1.03.176 2.802 0 2.01-.002 3.41-.105 4.494-.102 1.06-.29 1.66-.569 2.108a4.5 4.5 0 0 1-1.458 1.458c-.449.278-1.048.467-2.108.569-1.084.103-2.484.105-4.494.105ZM5 16.766c0-1.673 0-2.51.25-3.271.14-.421.333-.822.577-1.191.442-.67 1.098-1.189 2.41-2.227l3.247-2.567c1.945-1.539 2.918-2.308 4.035-2.444a4 4 0 0 1 .962 0c1.117.136 2.09.905 4.035 2.444l3.246 2.567c1.313 1.038 1.969 1.557 2.41 2.227a5 5 0 0 1 .577 1.19c.251.762.251 1.599.251 3.272 0 3.96 0 5.94-.898 7.392a6 6 0 0 1-1.944 1.944C22.706 27 20.726 27 16.766 27h-1.532c-3.96 0-5.94 0-7.392-.898a6 6 0 0 1-1.944-1.944C5 22.706 5 20.726 5 16.766Zm9.595-1.063a2.996 2.996 0 0 1 2.81 0c.52.276.845.816.845 1.405v4.843h-4.5v-4.843c0-.589.325-1.13.845-1.405Zm3.514-1.325c-1.319-.7-2.9-.7-4.218 0a3.09 3.09 0 0 0-1.641 2.73V22.2c0 .69.56 1.25 1.25 1.25h5c.69 0 1.25-.56 1.25-1.25v-5.093a3.09 3.09 0 0 0-1.64-2.73Z"></path></svg>