<svg width="24" height="24" viewBox="0 0 24 24" fill="none" xmlns="http://www.w3.org/2000/svg"><g fill="currentColor"><path d="M9.203 17.813a.75.75 0 0 0 0-1.5h-3.61a.75.75 0 0 0 0 1.5zM9.953 10.463a.75.75 0 0 1-.75.75h-3.61a.75.75 0 0 1 0-1.5h3.61a.75.75 0 0 1 .75.75zM9.203 14.513a.75.75 0 1 0 0-1.5h-3.61a.75.75 0 0 0 0 1.5zM9.953 7.163a.75.75 0 0 1-.75.75h-3.61a.75.75 0 0 1 0-1.5h3.61a.75.75 0 0 1 .75.75zM15.29 17.063a.75.75 0 1 1-1.5 0 .75.75 0 0 1 1.5 0zM14.54 14.532a.75.75 0 1 0 0-1.5.75.75 0 0 0 0 1.5zM18.727 17.063a.75.75 0 1 1-1.5 0 .75.75 0 0 1 1.5 0zM17.977 14.532a.75.75 0 1 0 0-1.5.75.75 0 0 0 0 1.5z"></path><path clip-rule="evenodd" d="M2.063 8.46c0-2.188 0-3.283.543-4.058a3 3 0 0 1 .734-.734c.775-.543 1.87-.543 4.058-.543s3.283 0 4.059.543c.285.2.534.449.734.734.543.775.543 1.87.543 4.058V9.72h3.744c2.307 0 3.46 0 4.26.6.227.17.428.372.599.598.6.8.6 1.954.6 4.262v.486c0 2.307 0 3.46-.6 4.26-.17.227-.372.429-.598.599-.8.6-1.954.6-4.262.6H7.522c-2.307 0-3.46 0-4.26-.6a3 3 0 0 1-.599-.598c-.6-.8-.6-1.954-.6-4.261zm9.171 0v11.164H7.523c-1.188 0-1.956-.002-2.53-.066-.546-.06-.733-.16-.831-.234a1.498 1.498 0 0 1-.299-.299c-.074-.098-.174-.285-.235-.83-.063-.575-.066-1.343-.066-2.53V8.46c0-1.126.002-1.854.06-2.401.055-.52.147-.702.212-.796a1.5 1.5 0 0 1 .367-.367c.094-.065.275-.157.796-.212.547-.058 1.275-.06 2.401-.06s1.855.002 2.402.06c.52.055.702.147.796.212.142.1.266.225.366.367.066.094.158.275.213.796.057.547.06 1.275.06 2.401zm5.244 2.759H12.75v8.406h3.728c1.187 0 1.955-.002 2.53-.066.545-.06.732-.161.83-.235a1.5 1.5 0 0 0 .299-.299c.074-.098.174-.285.234-.83.064-.575.067-1.342.067-2.53v-.486c0-1.188-.003-1.956-.066-2.53-.061-.546-.161-.733-.235-.83a1.498 1.498 0 0 0-.299-.3c-.098-.073-.285-.174-.83-.234-.575-.064-1.343-.066-2.53-.066z" fill-rule="evenodd"></path></g></svg>